<svg viewBox="0 0 620 320" xmlns="http://www.w3.org/2000/svg" role="img">
<line x1="150" y1="20" x2="150" y2="280" stroke="#eee"/>
<text x="150" y="294" font-size="10" fill="#aaa" text-anchor="middle">0%</text>
<line x1="264" y1="20" x2="264" y2="280" stroke="#eee"/>
<text x="264" y="294" font-size="10" fill="#aaa" text-anchor="middle">25%</text>
<line x1="378" y1="20" x2="378" y2="280" stroke="#eee"/>
<text x="378" y="294" font-size="10" fill="#aaa" text-anchor="middle">50%</text>
<line x1="492" y1="20" x2="492" y2="280" stroke="#eee"/>
<text x="492" y="294" font-size="10" fill="#aaa" text-anchor="middle">75%</text>
<line x1="606" y1="20" x2="606" y2="280" stroke="#eee"/>
<text x="606" y="294" font-size="10" fill="#aaa" text-anchor="middle">100%</text>
<text x="142" y="67" font-size="12" fill="#333" text-anchor="end">关掉聊天不丢东西</text>
<rect x="150" y="36" width="1.5" height="28" fill="#d93025" rx="2"/>
<text x="154" y="62" font-size="9" fill="#444">0%</text>
<rect x="150" y="66" width="456.0" height="28" fill="#1a7f64" rx="2"/>
<text x="609" y="93" font-size="9" fill="#444">100%</text>
<text x="142" y="154" font-size="12" fill="#333" text-anchor="end">复习完手里有东西</text>
<rect x="150" y="122" width="1.5" height="28" fill="#d93025" rx="2"/>
<text x="154" y="149" font-size="9" fill="#444">0%</text>
<rect x="150" y="153" width="370.5" height="28" fill="#1a7f64" rx="2"/>
<text x="524" y="180" font-size="9" fill="#444">81%</text>
<text x="142" y="241" font-size="12" fill="#333" text-anchor="end">句句有出处</text>
<rect x="150" y="209" width="1.5" height="28" fill="#d93025" rx="2"/>
<text x="154" y="236" font-size="9" fill="#444">0%</text>
<rect x="150" y="240" width="266.0" height="28" fill="#1a7f64" rx="2"/>
<text x="419" y="266" font-size="9" fill="#444">58%</text>
<rect x="150" y="4" width="10" height="10" fill="#d93025"/>
<text x="164" y="13" font-size="10" fill="#444">无 skill</text>
<rect x="235" y="4" width="10" height="10" fill="#1a7f64"/>
<text x="249" y="13" font-size="10" fill="#444">有 skill</text>
</svg>
