<svg viewBox="0 0 440 300" xmlns="http://www.w3.org/2000/svg" role="img">
<line x1="48" y1="244" x2="426" y2="244" stroke="#eee"/>
<text x="42" y="248" font-size="11" fill="#888" text-anchor="end">0%</text>
<line x1="48" y1="190" x2="426" y2="190" stroke="#eee"/>
<text x="42" y="194" font-size="11" fill="#888" text-anchor="end">25%</text>
<line x1="48" y1="137" x2="426" y2="137" stroke="#eee"/>
<text x="42" y="141" font-size="11" fill="#888" text-anchor="end">50%</text>
<line x1="48" y1="84" x2="426" y2="84" stroke="#eee"/>
<text x="42" y="88" font-size="11" fill="#888" text-anchor="end">75%</text>
<line x1="48" y1="30" x2="426" y2="30" stroke="#eee"/>
<text x="42" y="34" font-size="11" fill="#888" text-anchor="end">100%</text>
<rect x="73" y="51" width="25" height="193" fill="#d93025" rx="2"/>
<text x="86" y="47" font-size="10" fill="#444" text-anchor="middle">90</text>
<rect x="105" y="30" width="25" height="214" fill="#f9ab00" rx="2"/>
<text x="117" y="26" font-size="10" fill="#444" text-anchor="middle">100</text>
<rect x="136" y="30" width="25" height="214" fill="#1a7f64" rx="2"/>
<text x="149" y="26" font-size="10" fill="#444" text-anchor="middle">100</text>
<text x="111" y="262" font-size="12" fill="#333" text-anchor="middle">Opus 4.8</text>
<rect x="199" y="94" width="25" height="150" fill="#d93025" rx="2"/>
<text x="212" y="90" font-size="10" fill="#444" text-anchor="middle">70</text>
<rect x="231" y="30" width="25" height="214" fill="#f9ab00" rx="2"/>
<text x="243" y="26" font-size="10" fill="#444" text-anchor="middle">100</text>
<rect x="262" y="51" width="25" height="193" fill="#1a7f64" rx="2"/>
<text x="275" y="47" font-size="10" fill="#444" text-anchor="middle">90</text>
<text x="237" y="262" font-size="12" fill="#333" text-anchor="middle">Sonnet 4.6</text>
<rect x="325" y="73" width="25" height="171" fill="#d93025" rx="2"/>
<text x="338" y="69" font-size="10" fill="#444" text-anchor="middle">80</text>
<rect x="357" y="30" width="25" height="214" fill="#f9ab00" rx="2"/>
<text x="369" y="26" font-size="10" fill="#444" text-anchor="middle">100</text>
<rect x="388" y="30" width="25" height="214" fill="#1a7f64" rx="2"/>
<text x="401" y="26" font-size="10" fill="#444" text-anchor="middle">100</text>
<text x="363" y="262" font-size="12" fill="#333" text-anchor="middle">Haiku 4.5</text>
<rect x="48" y="282" width="11" height="11" fill="#d93025"/>
<text x="63" y="292" font-size="11" fill="#444">不给资料</text>
<rect x="128" y="282" width="11" height="11" fill="#f9ab00"/>
<text x="143" y="292" font-size="11" fill="#444">裸文件 + 通用 agent</text>
<rect x="318" y="282" width="11" height="11" fill="#1a7f64"/>
<text x="333" y="292" font-size="11" fill="#444">使用本技能</text>
</svg>
