<svg viewBox="0 0 560 300" xmlns="http://www.w3.org/2000/svg" role="img">
<line x1="48" y1="246" x2="546" y2="246" stroke="#eee"/>
<text x="42" y="250" font-size="11" fill="#888" text-anchor="end">0%</text>
<line x1="48" y1="192" x2="546" y2="192" stroke="#eee"/>
<text x="42" y="196" font-size="11" fill="#888" text-anchor="end">25%</text>
<line x1="48" y1="138" x2="546" y2="138" stroke="#eee"/>
<text x="42" y="142" font-size="11" fill="#888" text-anchor="end">50%</text>
<line x1="48" y1="84" x2="546" y2="84" stroke="#eee"/>
<text x="42" y="88" font-size="11" fill="#888" text-anchor="end">75%</text>
<line x1="48" y1="30" x2="546" y2="30" stroke="#eee"/>
<text x="42" y="34" font-size="11" fill="#888" text-anchor="end">100%</text>
<rect x="98" y="38" width="50" height="208" fill="#1a7f64" rx="2"/>
<text x="123" y="34" font-size="10" fill="#444" text-anchor="middle">96</text>
<rect x="160" y="30" width="50" height="216" fill="#2a9d8f" rx="2"/>
<text x="185" y="26" font-size="10" fill="#444" text-anchor="middle">100</text>
<rect x="222" y="30" width="50" height="216" fill="#68b0a0" rx="2"/>
<text x="247" y="26" font-size="10" fill="#444" text-anchor="middle">100</text>
<text x="172" y="264" font-size="12" fill="#333" text-anchor="middle">PSYC 110</text>
<rect x="347" y="85" width="50" height="161" fill="#1a7f64" rx="2"/>
<text x="372" y="81" font-size="10" fill="#444" text-anchor="middle">75</text>
<rect x="409" y="61" width="50" height="185" fill="#2a9d8f" rx="2"/>
<text x="434" y="57" font-size="10" fill="#444" text-anchor="middle">85</text>
<rect x="471" y="30" width="50" height="216" fill="#68b0a0" rx="2"/>
<text x="496" y="26" font-size="10" fill="#444" text-anchor="middle">100</text>
<text x="422" y="264" font-size="12" fill="#333" text-anchor="middle">6.006</text>
<rect x="48.0" y="282" width="11" height="11" fill="#1a7f64"/>
<text x="63.0" y="292" font-size="11" fill="#444">Opus 4.8</text>
<rect x="134.8" y="282" width="11" height="11" fill="#2a9d8f"/>
<text x="149.8" y="292" font-size="11" fill="#444">Sonnet 4.6</text>
<rect x="234.8" y="282" width="11" height="11" fill="#68b0a0"/>
<text x="249.8" y="292" font-size="11" fill="#444">Haiku 4.5</text>
</svg>
